<svg xmlns="http://www.w3.org/2000/svg" width="425.402" height="120.613" viewBox="0 0 425.402 120.613">
  <g id="logo" transform="translate(-36.82 -190.156)">
    <path id="Courier" d="M323.665,239.505a14.7,14.7,0,0,0-4.428,2.609,12.5,12.5,0,0,0-3.015,3.837,10.145,10.145,0,0,0-1.106,4.643v17.574H306.26V229.8h8.856v3.836a21.448,21.448,0,0,1,6.259-2.954,27.139,27.139,0,0,1,7.71-1.036v8.9A15.108,15.108,0,0,0,323.665,239.505Zm-54.35,14.465a12.238,12.238,0,0,0,2.6,3.607,11.893,11.893,0,0,0,3.74,2.418,12.438,12.438,0,0,0,11.3-1.075,11.252,11.252,0,0,0,4.121-5.257h9.7a25.809,25.809,0,0,1-3.435,7.445,19.758,19.758,0,0,1-4.886,4.987,19.29,19.29,0,0,1-5.916,2.8,23.629,23.629,0,0,1-6.373.884,20.088,20.088,0,0,1-8.13-1.65,21.183,21.183,0,0,1-6.58-4.452,20.8,20.8,0,0,1-4.427-6.6,21.339,21.339,0,0,1,0-16.345,20.83,20.83,0,0,1,4.427-6.6,21.214,21.214,0,0,1,6.58-4.451,20.1,20.1,0,0,1,8.13-1.65,20.339,20.339,0,0,1,8.626,1.766,19.928,19.928,0,0,1,6.488,4.719,21.706,21.706,0,0,1,4.16,6.83,23.84,23.84,0,0,1,1.565,8.174H268.246A10.962,10.962,0,0,0,269.315,253.97Zm20.992-12.2q-2.9-4.91-10.077-4.988-7.328.231-10.229,4.988ZM245.345,229.8H254.2v38.371h-8.855Zm-10.839,9.708a14.7,14.7,0,0,0-4.427,2.609,12.468,12.468,0,0,0-3.015,3.837,10.133,10.133,0,0,0-1.107,4.643v17.574H217.1V229.8h8.856v3.836a21.448,21.448,0,0,1,6.259-2.954,27.149,27.149,0,0,1,7.71-1.036v8.9A15.108,15.108,0,0,0,234.506,239.505Zm-28.281,23.483a16.973,16.973,0,0,1-5.5,3.8,16.724,16.724,0,0,1-6.756,1.382,16.445,16.445,0,0,1-6.718-1.382,18.024,18.024,0,0,1-9.313-9.4,16.956,16.956,0,0,1-1.374-6.792V229.8h8.856V250.67a7.975,7.975,0,0,0,.686,3.3,8.941,8.941,0,0,0,1.832,2.686,8.219,8.219,0,0,0,2.711,1.8,8.532,8.532,0,0,0,3.32.652,8.314,8.314,0,0,0,5.954-2.456,8.924,8.924,0,0,0,1.832-2.686,7.976,7.976,0,0,0,.687-3.3V229.8H211.3V250.67a16.685,16.685,0,0,1-1.374,6.754A18.8,18.8,0,0,1,206.225,262.988Zm-40.382.69a21.022,21.022,0,0,1-6.565,4.452,20.083,20.083,0,0,1-8.129,1.65,21.64,21.64,0,0,1-2.893-.193L168.528,249.7,146.869,228.46a21.069,21.069,0,0,1,4.28-.429,20.1,20.1,0,0,1,8.129,1.65,20.8,20.8,0,0,1,10.993,11.052,21.171,21.171,0,0,1,0,16.345A21.144,21.144,0,0,1,165.843,263.678ZM87.6,254.93a19.7,19.7,0,0,0,6.145,4.182,18.451,18.451,0,0,0,7.48,1.535,18.079,18.079,0,0,0,7.482-1.574,20.357,20.357,0,0,0,6.182-4.258h11.527a28.8,28.8,0,0,1-4.313,6.062,27.778,27.778,0,0,1-12.786,7.867,28.808,28.808,0,0,1-8.092,1.112,27.117,27.117,0,0,1-11.03-2.264,28.927,28.927,0,0,1-15.114-15.2,28.332,28.332,0,0,1,0-22.139,28.83,28.83,0,0,1,15.114-15.234,27.117,27.117,0,0,1,11.03-2.264,26.567,26.567,0,0,1,8.168,1.227,29.6,29.6,0,0,1,12.824,8.212,30.1,30.1,0,0,1,4.2,5.832h-11.6a21.63,21.63,0,0,0-6.183-4.373,17.209,17.209,0,0,0-7.4-1.612,18.467,18.467,0,0,0-7.48,1.535,20.08,20.08,0,0,0-6.145,4.143,19.375,19.375,0,0,0-4.16,6.14,19,19,0,0,0,0,14.926A19.939,19.939,0,0,0,87.6,254.93Zm48.2,8.1a20.882,20.882,0,0,1-3.846-5.956,21.159,21.159,0,0,1,0-16.345,21.042,21.042,0,0,1,3.1-5.1L149.387,249.7Z" fill-rule="evenodd"/>
    <path id="Ellipse_2" data-name="Ellipse 2" d="M249.62,214.315a5.571,5.571,0,1,1-5.521,5.621A5.571,5.571,0,0,1,249.62,214.315Z" fill="#2a8b00"/>
    <path id="Shape_1" data-name="Shape 1" d="M73.535,260.774a25.219,25.219,0,0,1-17.846,7.349c-7.039,0-18.869-4.439-18.869-17.213A20.641,20.641,0,0,1,56.734,229.6c5.149,0,12.884,2.073,12.884,12.251,0,9.756-19.942,18.748-19.942,18.748s.427,2.505,8.1,2.505c5.913,0,10.6-4.452,13.845-5.606,2.171-.77,2.1,1.6,2.1,1.6S74.625,259.778,73.535,260.774ZM56.956,241.55c-5.29-5.3-10.286,11.518-10.286,11.518S62.462,247.065,56.956,241.55Z" fill="#2a8b00" fill-rule="evenodd"/>
    <g id="Group_1874" data-name="Group 1874">
      <path id="Path_4653" data-name="Path 4653" d="M193.065,295.828a1.366,1.366,0,0,1,.394-1,1.41,1.41,0,0,1,1.97,0,1.469,1.469,0,0,1,0,2,1.413,1.413,0,0,1-1.97,0A1.369,1.369,0,0,1,193.065,295.828Z" fill="#2a8b00"/>
      <path id="Path_4654" data-name="Path 4654" d="M199.929,288.853a6.785,6.785,0,0,0,.525,2.653,6.879,6.879,0,0,0,1.445,2.186,6.739,6.739,0,0,0,2.151,1.468,6.65,6.65,0,0,0,5.222,0,6.733,6.733,0,0,0,2.152-1.468,6.56,6.56,0,0,0,1.116-1.535h2.529l-.1.267a9.054,9.054,0,0,1-4.795,4.889,8.972,8.972,0,0,1-7.029,0,9.119,9.119,0,0,1-2.874-1.969,9.256,9.256,0,0,1-1.937-2.92,9.382,9.382,0,0,1,0-7.141,9.256,9.256,0,0,1,1.937-2.92,9.119,9.119,0,0,1,2.874-1.969,8.972,8.972,0,0,1,7.029,0,9.054,9.054,0,0,1,4.795,4.889l.1.234h-2.562a6.082,6.082,0,0,0-1.083-1.5,6.749,6.749,0,0,0-2.152-1.468,6.65,6.65,0,0,0-5.222,0,6.756,6.756,0,0,0-2.151,1.468,6.875,6.875,0,0,0-1.445,2.185A6.792,6.792,0,0,0,199.929,288.853Z" fill="#2a8b00"/>
      <path id="Path_4655" data-name="Path 4655" d="M216.646,288.853a9.061,9.061,0,0,1,.706-3.57,9.256,9.256,0,0,1,1.937-2.92,9.119,9.119,0,0,1,2.874-1.969,8.972,8.972,0,0,1,7.029,0,9.126,9.126,0,0,1,2.873,1.969,9.276,9.276,0,0,1,1.938,2.92,9.382,9.382,0,0,1,0,7.141,9.276,9.276,0,0,1-1.938,2.92,9.126,9.126,0,0,1-2.873,1.969,8.972,8.972,0,0,1-7.029,0,9.119,9.119,0,0,1-2.874-1.969,9.256,9.256,0,0,1-1.937-2.92A9.062,9.062,0,0,1,216.646,288.853Zm2.3,0a6.785,6.785,0,0,0,.525,2.653,6.88,6.88,0,0,0,1.445,2.186,6.739,6.739,0,0,0,2.151,1.468,6.65,6.65,0,0,0,5.222,0,6.733,6.733,0,0,0,2.152-1.468,6.913,6.913,0,0,0,1.445-2.186,6.966,6.966,0,0,0,0-5.306,6.908,6.908,0,0,0-1.445-2.185,6.749,6.749,0,0,0-2.152-1.468,6.65,6.65,0,0,0-5.222,0,6.756,6.756,0,0,0-2.151,1.468,6.875,6.875,0,0,0-1.445,2.185A6.792,6.792,0,0,0,218.945,288.853Z" fill="#2a8b00"/>
      <path id="Path_4656" data-name="Path 4656" d="M236.909,280.544h2.365v1.5a5.626,5.626,0,0,1,2.151-1.719,6.738,6.738,0,0,1,6.339.3,8.03,8.03,0,0,1,2.578,2.519,7.524,7.524,0,0,1,6.339-3.47,6.95,6.95,0,0,1,2.858.6,7.639,7.639,0,0,1,2.348,1.619,7.619,7.619,0,0,1,2.151,5.322l.033,10.011h-2.365l-.033-10.011a5.093,5.093,0,0,0-.394-2,5.346,5.346,0,0,0-1.067-1.635,4.949,4.949,0,0,0-1.577-1.1,4.961,4.961,0,0,0-3.908,0,5.15,5.15,0,0,0-3.071,4.738l.033,10.011h-2.365l-.033-10.011a6.042,6.042,0,0,0-.476-2.052,5.3,5.3,0,0,0-1.084-1.635,4.9,4.9,0,0,0-1.56-1.068,4.758,4.758,0,0,0-1.9-.384,4.382,4.382,0,0,0-1.921.434,5.486,5.486,0,0,0-2.677,2.787,4.824,4.824,0,0,0-.394,1.918l.033,10.011h-2.365Z" fill="#2a8b00"/>
      <path id="Path_4657" data-name="Path 4657" d="M265.318,295.828a1.367,1.367,0,0,1,.4-1,1.41,1.41,0,0,1,1.97,0,1.466,1.466,0,0,1,0,2,1.413,1.413,0,0,1-1.97,0A1.37,1.37,0,0,1,265.318,295.828Z" fill="#2a8b00"/>
      <path id="Path_4658" data-name="Path 4658" d="M269.686,273.871h2.3v9.343a7.075,7.075,0,0,1,2.891-2.519,8.338,8.338,0,0,1,3.842-1.018,8.69,8.69,0,0,1,3.515.717,9.126,9.126,0,0,1,2.873,1.969,9.259,9.259,0,0,1,1.938,2.92,9.382,9.382,0,0,1,0,7.141,9.259,9.259,0,0,1-1.938,2.92,9.126,9.126,0,0,1-2.873,1.969,8.972,8.972,0,0,1-7.029,0,9.131,9.131,0,0,1-2.874-1.969,9.257,9.257,0,0,1-1.937-2.92,9.045,9.045,0,0,1-.707-3.571Zm2.3,14.982a6.768,6.768,0,0,0,.526,2.653,6.879,6.879,0,0,0,1.445,2.186,6.74,6.74,0,0,0,2.151,1.468,6.65,6.65,0,0,0,5.222,0,6.755,6.755,0,0,0,2.152-1.468,6.9,6.9,0,0,0,1.445-2.186,6.966,6.966,0,0,0,0-5.306,6.891,6.891,0,0,0-1.445-2.185,6.771,6.771,0,0,0-2.152-1.468,6.65,6.65,0,0,0-5.222,0,6.756,6.756,0,0,0-2.151,1.468,6.875,6.875,0,0,0-1.445,2.185A6.775,6.775,0,0,0,271.985,288.853Z" fill="#2a8b00"/>
      <path id="Path_4659" data-name="Path 4659" d="M307,288.853a9.063,9.063,0,0,1-.706,3.571,9.276,9.276,0,0,1-1.938,2.92,9.126,9.126,0,0,1-2.873,1.969,8.972,8.972,0,0,1-7.029,0,9.119,9.119,0,0,1-2.874-1.969,9.257,9.257,0,0,1-1.937-2.92,9.369,9.369,0,0,1,0-7.141,9.256,9.256,0,0,1,1.937-2.92,9.119,9.119,0,0,1,2.874-1.969,8.685,8.685,0,0,1,3.514-.717,8.342,8.342,0,0,1,3.843,1.018,7.072,7.072,0,0,1,2.89,2.519v-9.343H307Zm-2.3,0a6.792,6.792,0,0,0-.525-2.653,6.908,6.908,0,0,0-1.445-2.185,6.778,6.778,0,0,0-2.151-1.468,6.653,6.653,0,0,0-5.223,0,6.756,6.756,0,0,0-2.151,1.468,6.875,6.875,0,0,0-1.445,2.185,6.966,6.966,0,0,0,0,5.306,6.879,6.879,0,0,0,1.445,2.186,6.74,6.74,0,0,0,2.151,1.468,6.653,6.653,0,0,0,5.223,0,6.761,6.761,0,0,0,2.151-1.468,6.913,6.913,0,0,0,1.445-2.186A6.785,6.785,0,0,0,304.7,288.853Z" fill="#2a8b00"/>
    </g>
    <path id="Ellipse_1" data-name="Ellipse 1" d="M440.688,288.181a28.492,28.492,0,0,1-12.272.411,26.048,26.048,0,1,0-15.637-47.846,28.641,28.641,0,1,1,27.909,47.435Z" fill-rule="evenodd"/>
    <path id="Ellipse_1_copy" data-name="Ellipse 1 copy" d="M425.381,241.295a20.846,20.846,0,0,0-8.372,4.361l-2.427-3.49A22.818,22.818,0,0,1,432.07,240.7,20.919,20.919,0,0,0,425.381,241.295ZM411.586,244l3.264,3.759a20.688,20.688,0,0,0,20.836,33.667,21.086,21.086,0,0,0,3.8-1.384A22.8,22.8,0,1,1,411.586,244Z" fill="#2a8b00" fill-rule="evenodd"/>
    <path id="Ellipse_1_copy_2" data-name="Ellipse 1 copy 2" d="M368.615,261.237l-6.991,5.469a25.986,25.986,0,0,0-33.365-4.262,28.562,28.562,0,0,1,40.356-1.207Zm-.971,16.578a25.939,25.939,0,0,0-4.276-8.979c2.574-1.518,5.263-3.1,7.955-4.688A28.606,28.606,0,0,1,343.9,310.29a26.02,26.02,0,0,0,23.747-32.475Z" fill="#2a8b00" fill-rule="evenodd"/>
    <path id="Ellipse_1_copy_3" data-name="Ellipse 1 copy 3" d="M346.2,306.177a22.945,22.945,0,0,0,8.772-4.433A20.719,20.719,0,1,1,347.55,262.4a22.835,22.835,0,1,0-1.353,43.78Z" fill-rule="evenodd"/>
    <path id="Shape_1_copy" data-name="Shape 1 copy" d="M425.648,257.533l-28.641-32.984s-.488.15-1.327.437l.067-.113-20.21-6.413a80.771,80.771,0,0,1,18.2-11.894,49.3,49.3,0,0,0,5.649,10.261l27.2,39.12Zm-45.471-25.339a53.56,53.56,0,0,0-7.75,6.085l-1.35-15.605q.462-.466.93-.927l18.324,5.277A71,71,0,0,0,380.177,232.194ZM360.22,251.1a52.071,52.071,0,0,1-10.756-2.247,238.082,238.082,0,0,1,17.92-22.318L369.1,241.6c-.662.708-1.034,1.139-1.034,1.139a14.3,14.3,0,0,0,6.867,2.836c6.029.965,14.244.379,19.72.746a15.014,15.014,0,0,1,5.666,1.584,43.91,43.91,0,0,1-8.524,6.476l-43.708,25.756,35.833-28.021s-1.737-.007-4.433-.06C374.647,251.959,366.73,251.718,360.22,251.1Z" fill="#2a8b00" fill-rule="evenodd"/>
    <path id="Rectangle_3" data-name="Rectangle 3" d="M357.587,213.4l-10.1-9.39,13.961-13.849,10.131,10.213Zm-.964.9-13.654,12.712-9.259-9.334,12.843-12.739Zm.956.889,9.1,8.462c-4.677,4.868-9.086,10.16-12.575,14.588l-10.22-10.3ZM372.5,201.295l9.519,9.6a77.461,77.461,0,0,0-11.655,9.077c-.927.885-1.849,1.8-2.764,2.734l-9.053-8.416Z" fill-rule="evenodd"/>
    <path id="Shape_2" data-name="Shape 2" d="M414.432,210.513s5.479-11.281-11.884-13.027c-5.33-.535-10.269-.979-10.269-.979l7.123,7.26-5.053-1.817s4.728,10.546,10.415,12.972C408.847,216.662,414.432,210.513,414.432,210.513Z" fill="#2a8b00" fill-rule="evenodd"/>
  </g>
</svg>
